<svg xmlns="http://www.w3.org/2000/svg" xmlns:xlink="http://www.w3.org/1999/xlink" id="Layer_1" x="0px" y="0px" width="100%" viewBox="0 0 1693 929" xml:space="preserve">
<path fill="#000000" opacity="1.000000" stroke="none" d="M1146.000000,930.000000   C764.000000,930.000000 382.500000,930.000000 1.000000,930.000000   C1.000000,620.333313 1.000000,310.666656 1.000000,1.000000   C565.333313,1.000000 1129.666626,1.000000 1694.000000,1.000000   C1694.000000,310.666656 1694.000000,620.333313 1694.000000,930.000000   C1511.500000,930.000000 1329.000000,930.000000 1146.000000,930.000000  M830.962402,492.556732   C830.679993,493.387115 830.397522,494.217499 829.612488,495.525330   C828.176086,498.360229 826.739685,501.195099 825.014832,504.599304   C824.259888,503.120178 823.854980,502.423248 823.536377,501.688843   C810.781189,472.282074 797.997253,442.887787 785.302979,413.454742   C780.020874,401.207336 783.336548,395.109985 796.428772,392.295013   C797.639404,392.034698 798.677856,390.973358 799.796265,390.283936   C798.633057,389.725677 797.472656,388.687531 796.306152,388.680450   C775.659363,388.555756 755.011597,388.529388 734.364563,388.601440   C733.188782,388.605591 732.016602,389.637238 730.842712,390.190643   C731.876709,391.029449 732.807434,392.396942 733.961243,392.622101   C742.050049,394.200623 747.220886,399.185638 750.575195,406.370941   C755.774109,417.507568 761.020874,428.623871 766.050110,439.837250   C780.320068,471.654266 794.500549,503.511444 808.677002,535.370361   C809.658142,537.575256 810.444214,539.966309 813.501770,539.179993   C815.648376,538.627869 818.811096,538.164917 819.564453,536.673950   C825.142944,525.633850 830.230774,514.345825 835.942993,502.767273   C836.273621,501.843811 836.604248,500.920349 837.413574,499.497650   C838.010559,498.018219 838.607544,496.538757 839.693970,494.708466   C839.843933,494.142303 839.993835,493.576172 840.636780,492.542847   C841.241882,491.089539 841.847046,489.636261 842.939636,487.760834   C843.426331,486.558197 843.913025,485.355560 844.896301,483.697876   C846.021973,481.040649 847.147644,478.383453 848.815552,475.268585   C849.226379,474.179749 849.637207,473.090912 850.566040,471.552734   C854.682068,462.693604 858.798035,453.834442 863.433594,444.524963   C869.901306,431.785217 876.117737,418.908905 882.937744,406.360657   C886.608459,399.606720 892.442810,394.895325 900.075806,392.690125   C901.432983,392.298004 902.553528,391.087219 903.783325,390.254486   C902.278870,389.685944 900.778503,388.636444 899.269348,388.623566   C884.783203,388.500061 870.295227,388.503265 855.809021,388.622650   C854.246094,388.635498 852.691040,389.613556 851.132324,390.143890   C852.510132,390.988678 853.836670,391.939850 855.284973,392.638519   C856.158386,393.059875 857.236267,393.034546 858.196350,393.302765   C864.896667,395.174652 868.924561,400.561890 868.105042,407.489838   C867.703979,410.880676 866.372864,414.232727 865.045532,417.429077   C861.348572,426.331573 857.433411,435.143433 853.149841,444.391632   C852.673340,445.712463 852.196899,447.033325 851.232117,448.720551   C851.068604,449.297058 850.905090,449.873566 850.234314,450.874634   C849.767944,452.093597 849.301636,453.312561 848.291687,454.988434   C847.804993,456.303864 847.318298,457.619293 846.334717,459.356018   C845.889343,460.570526 845.443970,461.785034 844.499756,463.420135   C844.017944,464.619537 843.536194,465.818970 842.541931,467.480804   C841.026367,470.986694 839.510803,474.492584 837.486206,478.436981   C837.196777,479.274200 836.907288,480.111420 836.157532,481.433289   C834.548523,485.012421 832.939514,488.591553 830.962402,492.556732  M438.263153,323.268188   C424.871429,316.635406 410.829834,312.134216 395.929047,310.565857   C354.083649,306.161438 316.880127,315.820831 286.898956,346.927185   C240.940659,394.610229 246.321686,475.281464 298.684967,515.163330   C332.914825,541.234070 371.706787,545.333618 412.611328,535.527283   C416.282623,534.647095 419.044800,534.787781 422.378052,536.727417   C436.623749,545.016968 450.947449,553.217468 467.159302,557.274658   C490.585297,563.137329 510.410919,554.115906 520.763916,532.730469   C521.302795,531.617310 521.123535,530.156433 521.397095,527.865051   C508.989929,538.146057 502.168976,540.504333 489.368195,538.867798   C473.364014,536.821655 459.569031,528.959106 444.994202,522.100525   C520.190002,477.839722 517.276489,365.731842 438.263153,323.268188  M586.974731,470.105347   C586.465027,463.422363 585.955322,456.739349 585.431458,449.870789   C604.478149,449.870789 622.300049,449.870758 640.121948,449.870758   C657.877930,449.870758 675.633972,449.870789 693.855652,449.870789   C693.832642,428.890289 688.578918,410.575775 671.958496,397.914398   C648.535217,380.070587 622.366760,379.591705 596.896912,391.929291   C549.778564,414.753418 544.396729,479.333435 573.085144,514.103394   C590.580872,535.307861 614.058594,542.264832 640.707092,539.559570   C664.693909,537.124573 681.839661,524.613281 692.493347,503.023224   C693.965576,500.039673 694.465149,497.560028 691.088135,495.273407   C689.789612,497.062927 688.484375,498.761078 687.284302,500.530609   C669.510742,526.739929 632.409790,532.269470 608.286377,511.845459   C595.792358,501.267456 589.972595,486.769989 586.974731,470.105347  M1042.795166,388.657806   C1037.234009,384.538116 1030.946411,383.532471 1024.285156,384.576447   C1014.578735,386.097717 1006.221741,390.380798 999.592773,397.651794   C995.538452,402.098755 991.855164,406.883911 987.096802,412.610443   C987.096802,402.699280 987.096802,394.011841 987.096802,384.550537   C984.529053,385.405762 982.844543,385.935547 981.181580,386.526031   C973.187988,389.364441 965.242920,392.347961 957.193726,395.018158   C952.618103,396.536041 947.850281,397.466248 943.225647,398.850433   C942.036743,399.206299 941.062439,400.279114 939.989502,401.022583   C941.200806,401.571228 942.377686,402.225891 943.634705,402.633484   C944.568970,402.936462 945.610535,402.897339 946.598511,403.048035   C953.929749,404.166229 957.978516,407.858826 959.346313,415.094879   C959.898682,418.017029 960.075989,421.047668 960.081787,424.029633   C960.134949,451.358124 960.131470,478.686737 960.089539,506.015259   C960.084167,509.507660 959.963501,513.023376 959.551758,516.487366   C958.247620,527.458801 954.473450,531.320496 943.770630,533.285461   C942.391296,533.538696 941.153381,534.561951 939.849915,535.228516   C941.186768,535.774048 942.520996,536.787292 943.860962,536.794983   C964.023376,536.911377 984.186523,536.896362 1004.349548,536.908020   C1005.348694,536.908569 1006.396667,537.047119 1007.329773,536.788696   C1007.950562,536.616882 1008.787781,535.881653 1008.828552,535.345398   C1008.867920,534.827576 1008.110718,533.950439 1007.525024,533.748413   C1006.445251,533.376038 1005.232788,533.396484 1004.079102,533.228760   C993.756470,531.728699 989.203613,527.147644 987.873291,516.712891   C987.494995,513.745728 987.304504,510.734314 987.301697,507.742950   C987.279297,483.747467 987.078064,459.747253 987.530701,435.759796   C987.633911,430.291901 989.075378,424.349152 991.604980,419.517059   C1000.663208,402.213562 1018.581604,400.523682 1027.200439,414.955231   C1032.013794,423.014984 1043.205566,421.557343 1047.752686,413.218445   C1052.074463,405.292847 1050.400391,396.120483 1042.795166,388.657806  M1357.476807,537.140137   C1370.294067,537.209778 1383.120850,537.617004 1395.925781,537.252930   C1408.378906,536.898865 1420.928711,538.327271 1433.366089,536.032043   C1432.365723,534.923035 1431.357910,534.415710 1430.294434,534.233337   C1416.151855,531.807495 1404.930786,524.611389 1396.207397,513.369446   C1379.272705,491.545502 1362.365479,469.700104 1345.456909,447.855835   C1338.367920,438.697479 1331.304688,429.519257 1323.978027,420.023743   C1316.389648,429.084717 1309.186646,437.685699 1301.810791,446.493011   C1314.004395,462.551300 1325.902954,478.165466 1337.736206,493.828918   C1343.354614,501.265869 1349.037598,508.665619 1354.348389,516.320190   C1360.294678,524.890686 1357.556641,531.654785 1347.525146,534.119568   C1346.356079,534.406860 1345.221558,534.834717 1344.071167,535.197388   C1344.097656,535.845520 1344.124146,536.493652 1344.150635,537.141785   C1348.264648,537.141785 1352.378784,537.141785 1357.476807,537.140137  M1137.631226,411.500061   C1137.631226,402.766357 1137.631226,394.032684 1137.631226,384.990082   C1135.812378,385.150055 1134.790283,385.056427 1133.892212,385.346405   C1119.963867,389.843353 1106.044434,394.368073 1092.152954,398.977325   C1091.282227,399.266235 1090.660522,400.305756 1089.923096,400.996094   C1090.836182,401.487732 1091.698608,402.245605 1092.670044,402.431122   C1107.658325,405.293030 1110.269165,408.402191 1110.293091,423.809052   C1110.335693,451.300293 1110.369019,478.791656 1110.345703,506.282867   C1110.342407,510.107910 1110.248901,513.965698 1109.756592,517.750977   C1108.578003,526.811707 1104.125366,531.307983 1095.114746,532.981018   C1093.968994,533.193787 1092.748413,533.174622 1091.680664,533.576660   C1090.902832,533.869446 1090.319458,534.678650 1089.649292,535.257568   C1090.330200,535.789917 1090.940186,536.518188 1091.712524,536.798340   C1092.450806,537.066162 1093.358276,536.874207 1094.191284,536.873657   C1114.018188,536.860962 1133.845215,536.847229 1153.672119,536.831604   C1154.505127,536.830933 1155.403320,537.001648 1156.153320,536.746338   C1156.945557,536.476685 1157.596436,535.792053 1158.309082,535.288757   C1157.692017,534.686340 1157.171021,533.772095 1156.437988,533.545898   C1154.859985,533.059021 1153.174072,532.917908 1151.530029,532.650024   C1144.450317,531.496460 1140.128174,527.346985 1138.867065,520.360352   C1138.132202,516.289001 1137.704346,512.104675 1137.691772,507.969543   C1137.594482,476.146637 1137.632812,444.323334 1137.631226,411.500061  M1278.982056,359.460724   C1275.907349,355.115967 1272.600830,350.914307 1269.810303,346.394135   C1265.177979,338.890961 1267.972412,332.329010 1276.418213,329.967651   C1277.892334,329.555542 1279.239746,328.689880 1280.645630,328.033722   C1280.509033,327.692596 1280.372559,327.351501 1280.235962,327.010376   C1252.665161,327.010376 1225.094238,327.010376 1197.282349,327.010376   C1197.618408,328.074677 1197.624268,328.548889 1197.830566,328.663727   C1198.533081,329.055237 1199.281738,329.500580 1200.056274,329.606201   C1211.817139,331.210663 1219.940308,338.365753 1226.791138,347.295013   C1242.289551,367.495758 1257.675659,387.782776 1273.115723,408.028290   C1279.926758,416.959259 1286.758423,425.874603 1293.866699,435.170929   C1301.389038,426.141663 1308.466797,417.646118 1315.659912,409.012146   C1303.343262,392.386169 1291.366211,376.218658 1278.982056,359.460724  M1192.547974,533.329590   C1190.987549,533.969055 1189.427002,534.608582 1187.866577,535.248047   C1188.020142,535.592346 1188.173706,535.936584 1188.327148,536.280884   C1213.472290,536.280884 1238.617432,536.280884 1263.762451,536.280884   C1263.850830,535.784302 1263.939209,535.287720 1264.027466,534.791138   C1262.278687,534.234009 1260.530884,533.673950 1258.781128,533.120178   C1251.782837,530.905334 1249.179077,527.539551 1249.584839,520.262329   C1249.747681,517.344482 1250.305054,514.143738 1251.717407,511.660034   C1255.322876,505.319183 1259.180542,499.063904 1263.532104,493.217102   C1273.250977,480.158783 1283.332397,467.370239 1293.389160,454.312103   C1290.866455,450.940460 1288.519531,447.803741 1286.004517,444.442444   C1284.369141,446.165222 1283.103027,447.454529 1281.885498,448.788208   C1263.359375,469.080902 1244.979004,489.509247 1226.259033,509.621552   C1216.933716,519.640564 1206.971069,529.058167 1192.547974,533.329590  M1369.066895,346.835297   C1362.812256,356.794495 1356.977661,367.051331 1350.188232,376.631500   C1342.996216,386.779785 1334.896362,396.284729 1327.152466,406.122162   C1329.428223,408.965942 1331.473511,411.521729 1334.047119,414.737579   C1335.225708,413.234375 1336.066162,412.006500 1337.059814,410.918427   C1356.038452,390.134491 1374.939819,369.278412 1394.072632,348.637115   C1402.417480,339.634430 1411.765137,331.917511 1424.353149,329.427155   C1425.124390,329.274567 1425.763062,328.452789 1426.463379,327.942383   C1426.380127,327.590454 1426.296753,327.238525 1426.213379,326.886597   C1403.025146,326.886597 1379.836914,326.886597 1356.648682,326.886597   C1356.324951,327.329529 1356.001343,327.772461 1355.677612,328.215393   C1365.611450,330.441742 1371.412354,335.487701 1369.066895,346.835297  M1140.721191,341.276276   C1140.572510,339.792236 1140.555298,338.280853 1140.253296,336.828705   C1138.680176,329.262085 1132.520508,323.526215 1125.287598,322.797272   C1117.443481,322.006775 1110.356812,326.053192 1107.044556,333.214264   C1103.972412,339.856262 1105.526245,348.502777 1111.033813,353.423523   C1115.934937,357.802246 1121.717285,359.442688 1128.167236,357.405731   C1135.630005,355.049011 1139.484619,349.645599 1140.721191,341.276276  M1139.213135,615.474792   C1137.535034,619.478271 1135.857056,623.481812 1134.108765,627.653259   C1129.110229,621.566956 1129.724976,612.918335 1122.564697,607.759705   C1121.224365,619.308228 1121.934937,630.750977 1124.661499,633.728516   C1124.661499,627.658691 1124.661499,622.404541 1124.661499,617.150452   C1125.087402,617.072144 1125.513428,616.993835 1125.939331,616.915466   C1128.373901,622.427551 1130.808472,627.939575 1133.243042,633.451599   C1133.743774,633.348572 1134.244507,633.245544 1134.745239,633.142456   C1136.930054,627.947937 1139.114868,622.753357 1141.299805,617.558838   C1141.911865,617.643372 1142.523926,617.727905 1143.135986,617.812500   C1143.135986,622.889343 1143.135986,627.966187 1143.135986,633.043030   C1143.707397,632.997498 1144.278809,632.951904 1144.850220,632.906372   C1144.850220,624.949463 1144.850220,616.992554 1144.850220,608.860840   C1140.229004,608.499268 1141.072144,612.710876 1139.213135,615.474792  M1379.622070,623.762878   C1399.106934,623.779541 1418.591919,623.831421 1438.076294,623.732727   C1439.360107,623.726257 1440.638306,622.570679 1441.919067,621.949646   C1440.833130,621.488403 1439.748413,620.627930 1438.661255,620.624939   C1417.011597,620.565979 1395.361938,620.591553 1373.712280,620.669739   C1372.645142,620.673584 1371.580444,621.310791 1370.514526,621.653137   C1370.569580,622.355591 1370.624634,623.058105 1370.679688,623.760620   C1373.343994,623.760620 1376.008423,623.760620 1379.622070,623.762878  M329.976410,620.581726   C307.724548,620.581726 285.472687,620.581726 263.220825,620.581726   C263.149384,621.332031 263.077972,622.082336 263.006531,622.832642   C264.666504,623.151489 266.325592,623.741699 267.986633,623.747375   C285.264465,623.806519 302.542603,623.769714 319.820679,623.764465   C323.475677,623.763367 327.134521,623.877197 330.783112,623.728821   C331.752350,623.689392 332.690002,622.873291 333.642151,622.413818   C332.706543,621.803223 331.770905,621.192566 329.976410,620.581726  M686.852600,614.825500   C686.852600,618.563904 686.852600,622.302368 686.852600,626.040771   C683.524292,623.162476 681.355713,619.925964 679.197388,616.682678   C674.106934,609.033142 674.108948,609.031799 671.545410,609.268616   C671.545410,617.231323 671.545410,625.143372 671.545410,633.055359   C672.156189,633.084167 672.766907,633.112915 673.377686,633.141724   C673.377686,627.179810 673.377686,621.217834 673.377686,615.255920   C673.868286,615.209045 674.358826,615.162231 674.849426,615.115417   C677.049805,618.382019 679.023987,621.835083 681.516785,624.860840   C683.830505,627.669312 684.135620,632.667358 688.914795,633.159119   C688.914795,624.556885 688.914795,616.577942 688.914795,608.598999   C688.330750,608.586182 687.746704,608.573364 687.162659,608.560486   C687.059692,610.353577 686.956665,612.146729 686.852600,614.825500  M463.949860,629.431396   C465.004211,626.479553 466.058563,623.527710 467.091614,620.635498   C462.567566,620.635498 459.227600,620.635498 455.887634,620.635498   C455.884888,621.100769 455.882172,621.566101 455.879456,622.031372   C458.335449,622.354919 460.791473,622.678467 463.290436,623.007690   C463.221924,627.238159 460.866547,629.383728 457.455261,630.473572   C453.445465,631.754700 449.167603,629.843201 447.272186,626.176270   C445.012787,621.805115 446.141235,615.750977 449.737366,612.950378   C453.402588,610.096008 457.539062,610.281555 461.115692,613.365967   C462.191956,614.294128 463.439240,615.024048 464.608185,615.844788   C464.871368,615.412476 465.134552,614.980225 465.397766,614.547913   C463.319672,610.705811 460.020142,608.626526 455.555054,608.418152   C450.060028,608.161621 445.506592,611.430603 443.826050,616.695068   C442.102783,622.093262 444.094421,628.640564 448.326935,631.491577   C452.995605,634.636292 458.265076,634.105652 463.949860,629.431396  M721.164490,630.663330   C716.285828,631.456970 712.440369,629.842468 710.651550,625.171082   C709.012329,620.890564 709.250549,616.349243 712.925537,613.172852   C718.839172,608.061523 723.872559,611.563049 728.763306,616.452759   C728.050110,610.761963 723.696350,607.954102 717.782654,608.522217   C710.802368,609.192749 706.400391,614.769409 707.018921,622.158264   C707.615234,629.281921 712.934570,634.059265 719.642334,633.495483   C726.447693,632.923462 730.496460,627.777832 729.989685,620.467651   C726.280273,620.467651 722.597290,620.467651 718.914307,620.467651   C718.891541,620.963318 718.868774,621.458923 718.846069,621.954590   C721.593445,622.269409 724.340820,622.584167 728.968384,623.114380   C726.027405,626.184875 724.011169,628.289917 721.164490,630.663330  M1328.188843,626.404968   C1329.982178,628.800964 1331.775513,631.197021 1333.568848,633.593018   C1333.886353,633.297546 1334.203735,633.002136 1334.521240,632.706665   C1334.521240,624.712646 1334.521240,616.718628 1334.521240,608.724548   C1333.894165,608.699585 1333.267212,608.674622 1332.640137,608.649658   C1332.640137,614.560059 1332.640137,620.470459 1332.640137,627.525208   C1326.209717,620.955444 1324.069092,613.071594 1317.424805,607.871948   C1317.424805,617.053894 1317.424805,625.003967 1317.424805,632.953979   C1317.994263,632.962158 1318.563721,632.970276 1319.133179,632.978455   C1319.133179,626.968445 1319.133179,620.958496 1319.133179,614.948486   C1319.564087,614.888977 1319.994873,614.829468 1320.425781,614.769897   C1322.890869,618.438232 1325.355835,622.106506 1328.188843,626.404968  M1097.674316,608.607544   C1094.243042,608.607544 1090.811890,608.607544 1087.466553,608.607544   C1087.466553,617.047607 1087.466553,624.915283 1087.466553,633.077820   C1090.449097,633.077820 1093.088745,633.032349 1095.726196,633.088928   C1099.255493,633.164673 1102.978149,632.598816 1103.794067,628.839111   C1104.392456,626.080688 1103.065796,622.904602 1102.363647,618.424744   C1104.894897,614.559082 1104.160278,611.583252 1097.674316,608.607544  M775.487122,632.957214   C778.814636,632.969849 782.161743,633.215759 785.465027,632.938904   C790.090820,632.551270 792.908630,628.693298 791.591614,624.591370   C791.014832,622.794922 789.657227,621.249146 788.654236,619.589539   C789.119629,619.555542 789.585083,619.521545 790.050476,619.487610   C789.865540,616.796265 790.621338,613.469971 789.315369,611.535400   C785.717590,606.205444 779.958435,609.474060 774.870239,608.520508   C774.870239,616.852173 774.870239,624.626343 775.487122,632.957214  M420.712433,629.983459   C421.904572,631.136230 423.096710,632.288940 424.654541,633.795288   C424.654541,624.601135 424.654541,616.665039 424.654541,608.729004   C424.006653,608.737122 423.358765,608.745300 422.710876,608.753479   C422.710876,614.577454 422.710876,620.401428 422.710876,626.225403   C419.257874,622.997925 417.089508,619.692444 414.915527,616.390625   C410.118713,609.105286 410.117584,609.106018 407.651611,609.257446   C407.651611,617.210876 407.651611,625.122681 407.651611,633.034424   C408.232208,633.059021 408.812836,633.083618 409.393433,633.108276   C409.393433,627.114502 409.393433,621.120728 409.393433,615.127014   C409.844513,615.078308 410.295624,615.029602 410.746704,614.980896   C413.914734,619.786621 417.082794,624.592346 420.712433,629.983459  M916.165588,627.184082   C916.437866,629.163147 916.710144,631.142273 916.982361,633.121338   C917.699585,633.030640 918.416870,632.939880 919.134094,632.849182   C919.134094,626.897705 919.134094,620.946289 919.134094,614.994812   C922.245361,618.227661 924.233765,621.713318 926.695435,624.824463   C928.945129,627.667664 929.377502,632.337036 934.104614,633.239258   C935.764099,624.717224 934.996277,610.652161 932.099426,608.153931   C932.099426,614.693970 932.099426,620.603699 932.099426,626.513367   C928.893372,623.332336 926.865479,619.918701 924.475159,616.781189   C922.246765,613.856201 921.552124,609.112061 916.173035,608.740173   C916.173035,614.987061 916.173035,620.625061 916.165588,627.184082  M510.123199,615.481201   C511.229950,616.403870 512.603394,617.141418 513.395447,618.282471   C516.230530,622.367004 518.782593,626.648499 521.636414,630.719055   C522.434143,631.856934 523.901672,632.525208 525.670227,633.872253   C525.670227,624.600769 525.670227,616.734436 525.670227,607.795166   C521.582703,610.807678 523.447876,614.287903 523.166016,617.083984   C522.848999,620.228760 523.093079,623.430115 523.093079,626.606812   C518.523560,621.281738 515.098694,615.824158 511.475220,610.501892   C510.887482,609.638611 509.418640,609.375183 508.357056,608.834412   C507.983063,609.823975 507.299713,610.809143 507.285614,611.803833   C507.198364,617.946594 507.213409,624.092407 507.324402,630.234863   C507.342316,631.226868 508.009949,632.207153 508.377228,633.192810   C508.943512,633.097473 509.509796,633.002075 510.076080,632.906677   C510.076080,627.378906 510.076080,621.851135 510.123199,615.481201  M892.458130,632.101196   C898.943420,627.307251 900.646667,620.751709 897.092773,614.263550   C894.257690,609.087646 888.212341,607.039062 882.402405,609.285461   C876.006104,611.758362 873.216248,618.372314 875.607422,625.394104   C877.942200,632.250183 883.531555,634.685425 892.458130,632.101196  M1295.366699,629.831604   C1301.365723,621.399658 1298.770264,610.937500 1290.148804,608.797546   C1284.399170,607.370483 1278.722290,609.844177 1276.205811,614.873108   C1273.678101,619.924683 1274.877930,626.921997 1278.886963,630.509644   C1283.278809,634.439941 1289.080078,634.382568 1295.366699,629.831604  M626.460571,631.254883   C627.533875,631.922058 628.607178,632.589233 629.680481,633.256409   C629.909363,632.974182 630.138245,632.691956 630.367126,632.409790   C628.427551,629.425171 626.487976,626.440552 624.422546,623.262207   C628.656860,621.366089 630.899536,618.373718 629.682068,614.023621   C628.381714,609.377197 624.657593,608.279907 620.226562,608.630310   C618.132751,608.795898 616.014954,608.658691 614.149536,608.658691   C614.149536,617.166565 614.149536,625.073975 614.149536,632.981445   C614.634949,633.015381 615.120361,633.049377 615.605713,633.083374   C615.952087,629.857483 616.298462,626.631592 616.633484,623.511230   C623.293701,621.697632 623.209839,627.979492 626.460571,631.254883  M970.297363,629.863831   C974.134705,624.561707 974.698486,617.632202 971.655090,613.176392   C968.588318,608.686279 961.988770,607.263855 953.922119,609.414062   C953.922119,617.115173 953.922119,624.848877 953.922119,634.170715   C959.556763,632.826721 964.659180,631.609680 970.297363,629.863831  M1185.374146,628.422913   C1188.382812,632.915283 1192.710083,634.966187 1197.170044,632.832214   C1199.410767,631.759888 1201.887329,628.793335 1202.146729,626.449768   C1202.738037,621.107727 1198.247192,619.836487 1193.995239,618.946838   C1193.832520,618.912781 1193.634277,618.919373 1193.515137,618.826660   C1191.928589,617.592102 1190.120728,616.522095 1188.930908,614.977600   C1188.615234,614.567749 1190.079346,611.785645 1190.949097,611.662231   C1193.070557,611.361023 1195.399048,611.717651 1197.491333,612.330627   C1198.628662,612.663879 1199.454102,614.061890 1200.835327,615.374084   C1200.926636,609.137207 1194.782837,606.323792 1189.410034,609.609802   C1187.818604,610.583191 1186.094849,612.885071 1186.121704,614.550842   C1186.152344,616.442993 1187.686890,618.814453 1189.286133,620.041077   C1191.015747,621.367798 1193.795654,621.257385 1195.703247,622.441284   C1197.277588,623.418396 1199.417603,625.585876 1199.186401,626.832764   C1198.904053,628.356323 1196.450684,630.449036 1194.857910,630.519226   C1192.732300,630.612854 1190.559814,628.914734 1188.349609,628.154114   C1187.368774,627.816528 1186.246582,627.890198 1185.374146,628.422913  M813.940613,608.609924   C812.658569,608.677551 811.376526,608.745178 810.085693,608.813293   C810.085693,617.066406 810.085693,624.946716 810.085693,632.432007   C815.586060,632.432007 820.686768,632.432007 825.787476,632.432007   C825.796753,631.954041 825.805969,631.476013 825.815247,630.998047   C821.401794,630.766724 816.988342,630.535400 812.611084,630.305908   C812.611084,627.315735 812.611084,624.861084 812.611084,622.163269   C816.396667,621.890320 820.020447,621.629089 823.644226,621.367859   C823.649048,620.772095 823.653870,620.176392 823.658691,619.580627   C820.076416,619.364563 816.494202,619.148438 812.665894,618.917480   C812.665894,616.237549 812.665894,613.819275 812.665894,610.406860   C817.002319,610.406860 821.305481,610.406860 825.608643,610.406860   C825.578735,609.804077 825.548828,609.201294 825.518921,608.598511   C821.956604,608.598511 818.394348,608.598511 813.940613,608.609924  M1221.093384,631.610962   C1223.786987,632.170654 1226.506226,633.282837 1229.167969,633.158875   C1233.034424,632.978943 1235.733521,630.622375 1235.857056,626.475769   C1235.974121,622.553589 1233.553345,620.470276 1229.905640,619.617737   C1228.450317,619.277466 1226.741333,619.256592 1225.621582,618.440430   C1224.210571,617.411987 1223.284546,615.718262 1222.149292,614.311646   C1223.761230,613.189270 1225.490479,611.015808 1226.958740,611.179565   C1229.444458,611.456848 1231.765381,613.210999 1234.467529,614.492188   C1235.062988,611.139771 1232.868652,609.717590 1230.194458,608.835876   C1226.096436,607.484680 1220.759033,609.116272 1219.975586,612.534546   C1219.495605,614.628601 1220.325684,618.001404 1221.849609,619.338318   C1223.937134,621.169495 1227.395020,621.337708 1229.962158,622.764404   C1231.292358,623.503662 1232.971802,625.670593 1232.702148,626.741455   C1232.315796,628.275452 1230.284302,630.467407 1228.966553,630.459473   C1226.613403,630.445496 1224.245483,629.055542 1221.931885,628.121338   C1220.986572,627.739685 1220.166870,627.046875 1219.290039,626.495605   C1218.993042,626.824707 1218.695923,627.153809 1218.398926,627.482849   C1219.131958,628.696838 1219.865112,629.910767 1221.093384,631.610962  M579.558960,627.211060   C579.558960,629.003540 579.558960,630.796021 579.558960,632.325073   C585.156372,632.325073 590.352905,632.325073 595.549438,632.325073   C595.537109,631.817078 595.524719,631.309143 595.512390,630.801147   C591.207397,630.801147 586.902405,630.801147 582.445740,630.801147   C582.445740,627.416931 582.445740,624.835999 582.445740,622.071838   C586.113831,621.793274 589.599487,621.528564 593.085144,621.263855   C593.097351,620.728577 593.109558,620.193298 593.121765,619.657959   C589.646484,619.400940 586.171204,619.143921 582.488770,618.871582   C582.488770,616.259644 582.488770,613.832397 582.488770,611.216064   C586.702087,611.028870 590.819214,610.845947 594.936340,610.663025   C594.919189,610.151855 594.902100,609.640686 594.884949,609.129517   C589.823792,609.129517 584.762695,609.129517 579.559509,609.129517   C579.559509,614.966797 579.559509,620.623047 579.558960,627.211060  M556.020996,630.614990   C553.439331,630.614990 550.857666,630.614990 548.232910,630.614990   C548.232910,627.325623 548.232910,624.844727 548.232910,622.198608   C551.945435,621.899414 555.555969,621.608521 559.166504,621.317566   C559.166504,620.747803 559.166443,620.178040 559.166443,619.608276   C555.570251,619.341797 551.974060,619.075317 548.335144,618.805725   C548.335144,616.176270 548.335144,613.752808 548.335144,610.426025   C552.751526,610.426025 556.934448,610.426025 561.117432,610.426025   C561.078430,609.959106 561.039368,609.492249 561.000366,609.025330   C555.768250,609.025330 550.536194,609.025330 545.115967,609.025330   C545.115967,613.213684 545.115967,617.024780 545.115967,620.835876   C545.115967,624.776978 545.115967,628.718018 545.115967,632.446655   C550.799744,632.446655 556.021667,632.446655 561.243591,632.446655   C561.263550,631.949036 561.283508,631.451416 561.303528,630.953796   C559.835022,630.838440 558.366577,630.723022 556.020996,630.614990  M1031.412598,612.037903   C1030.462036,611.143738 1029.644287,610.007935 1028.537109,609.398438   C1024.460571,607.154541 1018.383057,608.846008 1016.790527,612.522888   C1015.141663,616.329834 1017.452637,619.785278 1022.857300,621.524536   C1024.115112,621.929260 1025.692261,621.860413 1026.629761,622.618713   C1028.009399,623.734619 1030.120117,625.774841 1029.808960,626.743103   C1029.285522,628.372009 1027.158569,630.461304 1025.606323,630.547058   C1023.465881,630.665283 1021.213196,629.147522 1019.048096,628.236694   C1018.128296,627.849731 1017.308594,627.224854 1016.443420,626.708130   C1016.061096,628.299561 1016.288513,629.065552 1016.720642,629.689941   C1019.546448,633.772644 1023.828735,634.344727 1027.742798,632.648071   C1029.967651,631.683655 1032.411011,628.545959 1032.626831,626.191833   C1033.051636,621.557312 1029.158936,619.932068 1025.112915,619.209351   C1024.623047,619.121765 1023.971802,619.163879 1023.680542,618.866577   C1022.149841,617.304199 1020.710815,615.651917 1019.239929,614.030945   C1021.448547,613.039795 1023.589844,611.594543 1025.894775,611.252563   C1027.017090,611.085938 1028.375244,613.114075 1029.783325,613.847595   C1030.143433,614.035156 1031.100098,613.077576 1031.412598,612.037903  M373.517242,628.197144   C373.517242,629.666504 373.517242,631.135925 373.517242,632.411194   C379.018433,632.411194 384.077972,632.411194 389.137543,632.411194   C389.136719,631.877747 389.135895,631.344360 389.135071,630.810913   C384.895813,630.810913 380.656525,630.810913 376.478699,630.810913   C376.478699,627.286011 376.478699,624.728455 376.478699,622.128601   C380.239655,621.854248 383.686523,621.602844 387.133392,621.351440   C387.135986,620.773438 387.138580,620.195374 387.141205,619.617371   C383.566956,619.329407 379.992706,619.041504 376.446960,618.755920   C376.446960,616.072815 376.446960,613.660095 376.446960,610.479248   C380.809143,610.479248 384.914490,610.479248 389.019806,610.479248   C389.005035,610.033203 388.990234,609.587158 388.975433,609.141113   C383.921173,609.141113 378.866913,609.141113 373.521484,609.141113   C373.521484,615.308350 373.521484,621.283569 373.517242,628.197144  M1056.043335,630.161865   C1055.021484,628.058289 1053.369019,626.028198 1053.113770,623.835388   C1052.637329,619.742004 1053.063599,615.550659 1052.904907,611.408081   C1052.866211,610.401428 1052.013184,609.425964 1051.534546,608.436218   C1051.048584,608.569275 1050.562500,608.702332 1050.076416,608.835449   C1050.076416,614.074036 1049.987427,619.314575 1050.100586,624.550659   C1050.223022,630.210876 1053.238647,633.255737 1058.631226,633.436340   C1064.598389,633.636169 1068.089478,630.610291 1068.346069,624.639099   C1068.545166,620.001709 1068.419922,615.347351 1068.313843,610.703369   C1068.297241,609.975464 1067.615479,609.262817 1067.241211,608.543091   C1066.733154,608.595520 1066.225220,608.647949 1065.717163,608.700439   C1065.717163,613.373657 1065.733643,618.046936 1065.713257,622.720093   C1065.684204,629.400818 1063.691406,631.149048 1056.043335,630.161865  M849.736389,628.132874   C849.983398,629.835571 850.230408,631.538330 850.477417,633.241028   C850.931580,633.208923 851.385742,633.176819 851.839905,633.144714   C852.553711,628.925354 852.719299,624.510559 854.134705,620.541382   C855.565796,616.528198 858.234680,612.956360 860.361328,609.191223   C859.821594,608.819397 859.281921,608.447571 858.742188,608.075745   C856.260681,611.824585 853.779175,615.573486 851.262329,619.375732   C847.516113,616.456116 847.895264,610.126831 842.744995,608.686829   C845.164978,615.136597 847.444214,621.211243 849.736389,628.132874  M651.637817,615.696960   C651.678406,609.722107 651.678406,609.722107 649.191162,608.944641   C649.191162,616.957825 649.191162,624.953918 649.191162,633.187561   C651.696899,631.666931 651.696899,631.666931 651.637817,615.696960  M485.707733,633.043213   C486.336212,632.303345 487.494141,631.574890 487.510437,630.821777   C487.657532,624.017273 487.651764,617.207642 487.535004,610.402161   C487.523834,609.749451 486.456818,609.114868 485.083282,607.583923   C485.083282,616.890808 485.083282,624.786987 485.707733,633.043213  M1253.981934,624.345581   C1254.194092,627.259521 1254.406250,630.173462 1254.618408,633.087402   C1255.127930,633.007629 1255.637573,632.927795 1256.147217,632.848022   C1256.147217,624.836487 1256.147217,616.824890 1256.147217,608.813354   C1255.427490,608.783386 1254.707642,608.753418 1253.987915,608.723450   C1253.987915,613.612976 1253.987915,618.502441 1253.981934,624.345581  M1164.345703,625.351257   C1164.542847,627.924622 1164.739990,630.497986 1164.937134,633.071289   C1165.432251,632.990723 1165.927490,632.910095 1166.422607,632.829529   C1166.422607,624.768127 1166.422607,616.706726 1166.422607,608.322754   C1165.407959,608.793030 1164.869629,608.917908 1164.864014,609.063232   C1164.667847,614.171936 1164.521606,619.282471 1164.345703,625.351257  z"/>
<path fill="#F9F8F9" opacity="1.000000" stroke="none" d="M438.584717,323.455231   C517.276489,365.731842 520.190002,477.839722 444.994202,522.100525   C459.569031,528.959106 473.364014,536.821655 489.368195,538.867798   C502.168976,540.504333 508.989929,538.146057 521.397095,527.865051   C521.123535,530.156433 521.302795,531.617310 520.763916,532.730469   C510.410919,554.115906 490.585297,563.137329 467.159302,557.274658   C450.947449,553.217468 436.623749,545.016968 422.378052,536.727417   C419.044800,534.787781 416.282623,534.647095 412.611328,535.527283   C371.706787,545.333618 332.914825,541.234070 298.684967,515.163330   C246.321686,475.281464 240.940659,394.610229 286.898956,346.927185   C316.880127,315.820831 354.083649,306.161438 395.929047,310.565857   C410.829834,312.134216 424.871429,316.635406 438.584717,323.455231  M318.309418,503.226349   C320.156921,505.334961 322.004425,507.443573 323.840149,509.538757   C339.763580,494.080566 350.971100,488.667725 367.672729,490.501862   C376.978516,491.523834 386.355286,494.086243 395.099060,497.495728   C406.540497,501.957092 417.387878,507.941925 429.688538,513.846313   C434.972595,507.071167 441.668396,500.504974 445.974152,492.631653   C470.693237,447.431610 471.401184,401.685181 445.091644,357.107147   C429.633759,330.915771 405.036591,317.539795 374.462799,318.674255   C342.948700,319.843597 319.698059,335.563599 305.217072,363.725403   C297.195465,379.325317 292.778290,396.028839 291.582062,413.479706   C289.325378,446.402100 296.379181,476.686707 318.309418,503.226349  M394.064972,519.444702   C389.340912,516.659058 384.821594,513.415283 379.846344,511.191711   C371.707092,507.554077 363.496948,503.649048 354.902466,501.565033   C344.404785,499.019501 334.563629,504.282562 329.116089,513.372131   C345.962677,530.434570 383.603821,536.889954 404.553162,525.886169   C401.076355,523.752930 397.879944,521.791748 394.064972,519.444702  z"/>
<path fill="#F7F6F7" opacity="1.000000" stroke="none" d="M587.049561,470.533142   C589.972595,486.769989 595.792358,501.267456 608.286377,511.845459   C632.409790,532.269470 669.510742,526.739929 687.284302,500.530609   C688.484375,498.761078 689.789612,497.062927 691.088135,495.273407   C694.465149,497.560028 693.965576,500.039673 692.493347,503.023224   C681.839661,524.613281 664.693909,537.124573 640.707092,539.559570   C614.058594,542.264832 590.580872,535.307861 573.085144,514.103394   C544.396729,479.333435 549.778564,414.753418 596.896912,391.929291   C622.366760,379.591705 648.535217,380.070587 671.958496,397.914398   C688.578918,410.575775 693.832642,428.890289 693.855652,449.870789   C675.633972,449.870789 657.877930,449.870758 640.121948,449.870758   C622.300049,449.870758 604.478149,449.870789 585.431458,449.870789   C585.955322,456.739349 586.465027,463.422363 587.049561,470.533142  M613.499878,442.649628   C630.119263,442.649628 646.738647,442.649628 663.539246,442.649628   C664.622803,431.363922 663.511780,421.002014 658.942505,411.343628   C650.362122,393.206696 632.500000,386.515442 614.739014,394.404114   C598.712524,401.522400 585.377258,424.580994 587.116333,442.646698   C595.548218,442.646698 604.024048,442.646698 613.499878,442.649628  z"/>
<path fill="#F7F7F7" opacity="1.000000" stroke="none" d="M1043.074463,388.886841   C1050.400391,396.120483 1052.074463,405.292847 1047.752686,413.218445   C1043.205566,421.557343 1032.013794,423.014984 1027.200439,414.955231   C1018.581604,400.523682 1000.663208,402.213562 991.604980,419.517059   C989.075378,424.349152 987.633911,430.291901 987.530701,435.759796   C987.078064,459.747253 987.279297,483.747467 987.301697,507.742950   C987.304504,510.734314 987.494995,513.745728 987.873291,516.712891   C989.203613,527.147644 993.756470,531.728699 1004.079102,533.228760   C1005.232788,533.396484 1006.445251,533.376038 1007.525024,533.748413   C1008.110718,533.950439 1008.867920,534.827576 1008.828552,535.345398   C1008.787781,535.881653 1007.950562,536.616882 1007.329773,536.788696   C1006.396667,537.047119 1005.348694,536.908569 1004.349548,536.908020   C984.186523,536.896362 964.023376,536.911377 943.860962,536.794983   C942.520996,536.787292 941.186768,535.774048 939.849915,535.228516   C941.153381,534.561951 942.391296,533.538696 943.770630,533.285461   C954.473450,531.320496 958.247620,527.458801 959.551758,516.487366   C959.963501,513.023376 960.084167,509.507660 960.089539,506.015259   C960.131470,478.686737 960.134949,451.358124 960.081787,424.029633   C960.075989,421.047668 959.898682,418.017029 959.346313,415.094879   C957.978516,407.858826 953.929749,404.166229 946.598511,403.048035   C945.610535,402.897339 944.568970,402.936462 943.634705,402.633484   C942.377686,402.225891 941.200806,401.571228 939.989502,401.022583   C941.062439,400.279114 942.036743,399.206299 943.225647,398.850433   C947.850281,397.466248 952.618103,396.536041 957.193726,395.018158   C965.242920,392.347961 973.187988,389.364441 981.181580,386.526031   C982.844543,385.935547 984.529053,385.405762 987.096802,384.550537   C987.096802,394.011841 987.096802,402.699280 987.096802,412.610443   C991.855164,406.883911 995.538452,402.098755 999.592773,397.651794   C1006.221741,390.380798 1014.578735,386.097717 1024.285156,384.576447   C1030.946411,383.532471 1037.234009,384.538116 1043.074463,388.886841  z"/>
<path fill="#F96503" opacity="1.000000" stroke="none" d="M1356.984863,537.140991   C1352.378784,537.141785 1348.264648,537.141785 1344.150635,537.141785   C1344.124146,536.493652 1344.097656,535.845520 1344.071167,535.197388   C1345.221558,534.834717 1346.356079,534.406860 1347.525146,534.119568   C1357.556641,531.654785 1360.294678,524.890686 1354.348389,516.320190   C1349.037598,508.665619 1343.354614,501.265869 1337.736206,493.828918   C1325.902954,478.165466 1314.004395,462.551300 1301.810791,446.493011   C1309.186646,437.685699 1316.389648,429.084717 1323.978027,420.023743   C1331.304688,429.519257 1338.367920,438.697479 1345.456909,447.855835   C1362.365479,469.700104 1379.272705,491.545502 1396.207397,513.369446   C1404.930786,524.611389 1416.151855,531.807495 1430.294434,534.233337   C1431.357910,534.415710 1432.365723,534.923035 1433.366089,536.032043   C1420.928711,538.327271 1408.378906,536.898865 1395.925781,537.252930   C1383.120850,537.617004 1370.294067,537.209778 1356.984863,537.140991  z"/>
<path fill="#F9F9F9" opacity="1.000000" stroke="none" d="M839.204468,495.059296   C838.607544,496.538757 838.010559,498.018219 836.768921,499.745850   C834.544739,500.146545 832.965332,500.299011 831.385864,500.451508   C831.351929,500.949219 831.317993,501.446930 831.284058,501.944641   C832.680298,502.341675 834.076538,502.738708 835.472778,503.135712   C830.230774,514.345825 825.142944,525.633850 819.564453,536.673950   C818.811096,538.164917 815.648376,538.627869 813.501770,539.179993   C810.444214,539.966309 809.658142,537.575256 808.677002,535.370361   C794.500549,503.511444 780.320068,471.654266 766.050110,439.837250   C761.020874,428.623871 755.774109,417.507568 750.575195,406.370941   C747.220886,399.185638 742.050049,394.200623 733.961243,392.622101   C732.807434,392.396942 731.876709,391.029449 730.842712,390.190674   C732.016602,389.637238 733.188782,388.605591 734.364563,388.601440   C755.011597,388.529388 775.659363,388.555756 796.306152,388.680450   C797.472656,388.687531 798.633057,389.725677 799.796265,390.283936   C798.677856,390.973358 797.639404,392.034698 796.428772,392.295013   C783.336548,395.109985 780.020874,401.207336 785.302979,413.454742   C797.997253,442.887787 810.781189,472.282074 823.536377,501.688843   C823.854980,502.423248 824.259888,503.120178 825.014832,504.599304   C826.739685,501.195099 828.176086,498.360229 830.198486,495.439789   C833.591125,495.255920 836.397827,495.157623 839.204468,495.059296  z"/>
<path fill="#F5F5F5" opacity="1.000000" stroke="none" d="M1137.630127,412.000122   C1137.632812,444.323334 1137.594482,476.146637 1137.691772,507.969543   C1137.704346,512.104675 1138.132202,516.289001 1138.867065,520.360352   C1140.128174,527.346985 1144.450317,531.496460 1151.530029,532.650024   C1153.174072,532.917908 1154.859985,533.059021 1156.437988,533.545898   C1157.171021,533.772095 1157.692017,534.686340 1158.309082,535.288757   C1157.596436,535.792053 1156.945557,536.476685 1156.153320,536.746338   C1155.403320,537.001648 1154.505127,536.830933 1153.672119,536.831604   C1133.845215,536.847229 1114.018188,536.860962 1094.191284,536.873657   C1093.358276,536.874207 1092.450806,537.066162 1091.712524,536.798340   C1090.940186,536.518188 1090.330200,535.789917 1089.649414,535.257568   C1090.319458,534.678650 1090.902832,533.869446 1091.680664,533.576660   C1092.748413,533.174622 1093.968994,533.193787 1095.114746,532.981018   C1104.125366,531.307983 1108.578003,526.811707 1109.756592,517.750977   C1110.248901,513.965698 1110.342407,510.107910 1110.345703,506.282867   C1110.369019,478.791656 1110.335693,451.300293 1110.293091,423.809052   C1110.269165,408.402191 1107.658325,405.293030 1092.670044,402.431122   C1091.698608,402.245605 1090.836182,401.487732 1089.923096,400.996094   C1090.660522,400.305756 1091.282227,399.266235 1092.152954,398.977325   C1106.044434,394.368073 1119.963867,389.843353 1133.892212,385.346405   C1134.790283,385.056427 1135.812378,385.150055 1137.631226,384.990082   C1137.631226,394.032684 1137.631226,402.766357 1137.630127,412.000122  z"/>
<path fill="#F9F8F9" opacity="1.000000" stroke="none" d="M1279.185547,359.755951   C1291.366211,376.218658 1303.343262,392.386169 1315.659912,409.012146   C1308.466797,417.646118 1301.389038,426.141663 1293.866699,435.170929   C1286.758423,425.874603 1279.926758,416.959259 1273.115723,408.028290   C1257.675659,387.782776 1242.289551,367.495758 1226.791138,347.295013   C1219.940308,338.365753 1211.817139,331.210663 1200.056274,329.606201   C1199.281738,329.500580 1198.533081,329.055237 1197.830566,328.663727   C1197.624268,328.548889 1197.618408,328.074677 1197.282349,327.010376   C1225.094238,327.010376 1252.665161,327.010376 1280.235962,327.010376   C1280.372559,327.351501 1280.509033,327.692596 1280.645630,328.033722   C1279.239746,328.689880 1277.892334,329.555542 1276.418213,329.967651   C1267.972412,332.329010 1265.177979,338.890961 1269.810303,346.394135   C1272.600830,350.914307 1275.907349,355.115967 1279.185547,359.755951  z"/>
<path fill="#F5F5F5" opacity="1.000000" stroke="none" d="M1192.927002,533.230225   C1206.971069,529.058167 1216.933716,519.640564 1226.259033,509.621552   C1244.979004,489.509247 1263.359375,469.080902 1281.885498,448.788208   C1283.103027,447.454529 1284.369141,446.165222 1286.004517,444.442444   C1288.519531,447.803741 1290.866455,450.940460 1293.389160,454.312103   C1283.332397,467.370239 1273.250977,480.158783 1263.532104,493.217102   C1259.180542,499.063904 1255.322876,505.319183 1251.717407,511.660034   C1250.305054,514.143738 1249.747681,517.344482 1249.584839,520.262329   C1249.179077,527.539551 1251.782837,530.905334 1258.781128,533.120178   C1260.530884,533.673950 1262.278687,534.234009 1264.027466,534.791138   C1263.939209,535.287720 1263.850830,535.784302 1263.762451,536.280884   C1238.617432,536.280884 1213.472290,536.280884 1188.327148,536.280884   C1188.173706,535.936584 1188.020142,535.592346 1187.866577,535.248047   C1189.427002,534.608582 1190.987549,533.969055 1192.927002,533.230225  z"/>
<path fill="#F36202" opacity="1.000000" stroke="none" d="M1369.144897,346.410187   C1371.412354,335.487701 1365.611450,330.441742 1355.677612,328.215393   C1356.001343,327.772461 1356.324951,327.329529 1356.648682,326.886597   C1379.836914,326.886597 1403.025146,326.886597 1426.213379,326.886597   C1426.296753,327.238525 1426.380127,327.590454 1426.463379,327.942383   C1425.763062,328.452789 1425.124390,329.274567 1424.353149,329.427155   C1411.765137,331.917511 1402.417480,339.634430 1394.072632,348.637115   C1374.939819,369.278412 1356.038452,390.134491 1337.059814,410.918427   C1336.066162,412.006500 1335.225708,413.234375 1334.047119,414.737579   C1331.473511,411.521729 1329.428223,408.965942 1327.152466,406.122162   C1334.896362,396.284729 1342.996216,386.779785 1350.188232,376.631500   C1356.977661,367.051331 1362.812256,356.794495 1369.144897,346.410187  z"/>
<path fill="#F1F1F1" opacity="1.000000" stroke="none" d="M853.604431,443.991119   C857.433411,435.143433 861.348572,426.331573 865.045532,417.429077   C866.372864,414.232727 867.703979,410.880676 868.105042,407.489838   C868.924561,400.561890 864.896667,395.174652 858.196350,393.302765   C857.236267,393.034546 856.158386,393.059875 855.284973,392.638519   C853.836670,391.939850 852.510132,390.988678 851.132324,390.143890   C852.691040,389.613556 854.246094,388.635498 855.809021,388.622650   C870.295227,388.503265 884.783203,388.500061 899.269348,388.623566   C900.778503,388.636444 902.278870,389.685944 903.783325,390.254486   C902.553528,391.087219 901.432983,392.298004 900.075806,392.690125   C892.442810,394.895325 886.608459,399.606720 882.937744,406.360657   C876.117737,418.908905 869.901306,431.785217 862.756897,444.759399   C859.254944,444.659576 856.429688,444.325348 853.604431,443.991119  z"/>
<path fill="#F7F7F7" opacity="1.000000" stroke="none" d="M1140.690308,341.690247   C1139.484619,349.645599 1135.630005,355.049011 1128.167236,357.405731   C1121.717285,359.442688 1115.934937,357.802246 1111.033813,353.423523   C1105.526245,348.502777 1103.972412,339.856262 1107.044556,333.214264   C1110.356812,326.053192 1117.443481,322.006775 1125.287598,322.797272   C1132.520508,323.526215 1138.680176,329.262085 1140.253296,336.828705   C1140.555298,338.280853 1140.572510,339.792236 1140.690308,341.690247  z"/>
<path fill="#F9F9F9" opacity="1.000000" stroke="none" d="M853.377136,444.191376   C856.429688,444.325348 859.254944,444.659576 862.497070,444.984558   C858.798035,453.834442 854.682068,462.693604 849.914185,471.860321   C848.932678,473.354004 848.603027,474.540131 848.273315,475.726227   C847.147644,478.383453 846.021973,481.040649 844.261475,483.891296   C842.208069,484.498047 840.789429,484.911377 838.309753,485.633789   C840.390198,486.914032 841.421143,487.548492 842.452148,488.182983   C841.847046,489.636261 841.241882,491.089539 839.964233,492.726257   C836.637939,492.663361 833.984192,492.417023 831.330505,492.170685   C832.939514,488.591553 834.548523,485.012421 836.818359,481.203674   C839.854797,480.482391 842.230408,479.990692 844.606018,479.498962   C844.537598,479.236267 844.469116,478.973541 844.400696,478.710815   C842.265564,478.473389 840.130432,478.235962 837.995239,477.998535   C839.510803,474.492584 841.026367,470.986694 843.180176,467.247284   C845.461304,466.512054 847.104309,466.010315 849.858032,465.169403   C847.336914,464.043640 846.167786,463.521606 844.998657,462.999542   C845.443970,461.785034 845.889343,460.570526 846.957031,459.160706   C848.552307,458.769836 849.525146,458.574219 850.546875,458.368805   C849.850159,456.806824 849.342773,455.669189 848.835327,454.531525   C849.301636,453.312561 849.767944,452.093597 850.654541,450.976318   C851.829346,451.253906 852.583801,451.429840 854.102234,451.783875   C852.970398,450.154053 852.345398,449.254089 851.720398,448.354126   C852.196899,447.033325 852.673340,445.712463 853.377136,444.191376  z"/>
<path fill="#D8D8D8" opacity="1.000000" stroke="none" d="M1139.376343,615.138062   C1141.072144,612.710876 1140.229004,608.499268 1144.850220,608.860840   C1144.850220,616.992554 1144.850220,624.949463 1144.850220,632.906372   C1144.278809,632.951904 1143.707397,632.997498 1143.135986,633.043030   C1143.135986,627.966187 1143.135986,622.889343 1143.135986,617.812500   C1142.523926,617.727905 1141.911865,617.643372 1141.299805,617.558838   C1139.114868,622.753357 1136.930054,627.947937 1134.745239,633.142456   C1134.244507,633.245544 1133.743774,633.348572 1133.243042,633.451599   C1130.808472,627.939575 1128.373901,622.427551 1125.939331,616.915466   C1125.513428,616.993835 1125.087402,617.072144 1124.661499,617.150452   C1124.661499,622.404541 1124.661499,627.658691 1124.661499,633.728516   C1121.934937,630.750977 1121.224365,619.308228 1122.564697,607.759705   C1129.724976,612.918335 1129.110229,621.566956 1134.108765,627.653259   C1135.857056,623.481812 1137.535034,619.478271 1139.376343,615.138062  z"/>
<path fill="#D95B02" opacity="1.000000" stroke="none" d="M1379.147461,623.761719   C1376.008423,623.760620 1373.343994,623.760620 1370.679688,623.760620   C1370.624634,623.058105 1370.569580,622.355591 1370.514526,621.653137   C1371.580444,621.310791 1372.645142,620.673584 1373.712280,620.669739   C1395.361938,620.591553 1417.011597,620.565979 1438.661255,620.624939   C1439.748413,620.627930 1440.833130,621.488403 1441.919067,621.949585   C1440.638306,622.570679 1439.360107,623.726257 1438.076294,623.732727   C1418.591919,623.831421 1399.106934,623.779541 1379.147461,623.761719  z"/>
<path fill="#D95B02" opacity="1.000000" stroke="none" d="M330.405853,620.581848   C331.770905,621.192566 332.706543,621.803223 333.642151,622.413818   C332.690002,622.873291 331.752350,623.689392 330.783112,623.728821   C327.134521,623.877197 323.475677,623.763367 319.820679,623.764465   C302.542603,623.769714 285.264465,623.806519 267.986633,623.747375   C266.325592,623.741699 264.666504,623.151489 263.006531,622.832642   C263.077972,622.082336 263.149384,621.332031 263.220825,620.581726   C285.472687,620.581726 307.724548,620.581726 330.405853,620.581848  z"/>
<path fill="#D3D3D4" opacity="1.000000" stroke="none" d="M686.853149,614.382690   C686.956665,612.146729 687.059692,610.353577 687.162659,608.560486   C687.746704,608.573364 688.330750,608.586182 688.914795,608.598999   C688.914795,616.577942 688.914795,624.556885 688.914795,633.159119   C684.135620,632.667358 683.830505,627.669312 681.516785,624.860840   C679.023987,621.835083 677.049805,618.382019 674.849426,615.115417   C674.358826,615.162231 673.868286,615.209045 673.377686,615.255920   C673.377686,621.217834 673.377686,627.179810 673.377686,633.141724   C672.766907,633.112915 672.156189,633.084167 671.545410,633.055359   C671.545410,625.143372 671.545410,617.231323 671.545410,609.268616   C674.108948,609.031799 674.106934,609.033142 679.197388,616.682678   C681.355713,619.925964 683.524292,623.162476 686.852600,626.040771   C686.852600,622.302368 686.852600,618.563904 686.853149,614.382690  z"/>
<path fill="#D3D3D4" opacity="1.000000" stroke="none" d="M463.703369,629.699524   C458.265076,634.105652 452.995605,634.636292 448.326935,631.491577   C444.094421,628.640564 442.102783,622.093262 443.826050,616.695068   C445.506592,611.430603 450.060028,608.161621 455.555054,608.418152   C460.020142,608.626526 463.319672,610.705811 465.397766,614.547913   C465.134552,614.980225 464.871368,615.412476 464.608185,615.844788   C463.439240,615.024048 462.191956,614.294128 461.115692,613.365967   C457.539062,610.281555 453.402588,610.096008 449.737366,612.950378   C446.141235,615.750977 445.012787,621.805115 447.272186,626.176270   C449.167603,629.843201 453.445465,631.754700 457.455261,630.473572   C460.866547,629.383728 463.221924,627.238159 463.290436,623.007690   C460.791473,622.678467 458.335449,622.354919 455.879456,622.031372   C455.882172,621.566101 455.884888,621.100769 455.887634,620.635498   C459.227600,620.635498 462.567566,620.635498 467.091614,620.635498   C466.058563,623.527710 465.004211,626.479553 463.703369,629.699524  z"/>
<path fill="#D8D8D8" opacity="1.000000" stroke="none" d="M721.579712,630.529175   C724.011169,628.289917 726.027405,626.184875 728.968384,623.114380   C724.340820,622.584167 721.593445,622.269409 718.846069,621.954590   C718.868774,621.458923 718.891541,620.963318 718.914307,620.467651   C722.597290,620.467651 726.280273,620.467651 729.989685,620.467651   C730.496460,627.777832 726.447693,632.923462 719.642334,633.495483   C712.934570,634.059265 707.615234,629.281921 707.018921,622.158264   C706.400391,614.769409 710.802368,609.192749 717.782654,608.522217   C723.696350,607.954102 728.050110,610.761963 728.763306,616.452759   C723.872559,611.563049 718.839172,608.061523 712.925537,613.172852   C709.250549,616.349243 709.012329,620.890564 710.651550,625.171082   C712.440369,629.842468 716.285828,631.456970 721.579712,630.529175  z"/>
<path fill="#F1F1F1" opacity="1.000000" stroke="none" d="M1328.004883,626.089844   C1325.355835,622.106506 1322.890869,618.438232 1320.425781,614.769897   C1319.994873,614.829468 1319.564087,614.888977 1319.133179,614.948486   C1319.133179,620.958496 1319.133179,626.968445 1319.133179,632.978455   C1318.563721,632.970276 1317.994263,632.962158 1317.424805,632.953979   C1317.424805,625.003967 1317.424805,617.053894 1317.424805,607.871948   C1324.069092,613.071594 1326.209717,620.955444 1332.640137,627.525208   C1332.640137,620.470459 1332.640137,614.560059 1332.640137,608.649658   C1333.267212,608.674622 1333.894165,608.699585 1334.521240,608.724548   C1334.521240,616.718628 1334.521240,624.712646 1334.521240,632.706665   C1334.203735,633.002136 1333.886353,633.297546 1333.568848,633.593018   C1331.775513,631.197021 1329.982178,628.800964 1328.004883,626.089844  z"/>
<path fill="#D3D3D4" opacity="1.000000" stroke="none" d="M1098.073242,608.669250   C1104.160278,611.583252 1104.894897,614.559082 1102.363647,618.424744   C1103.065796,622.904602 1104.392456,626.080688 1103.794067,628.839111   C1102.978149,632.598816 1099.255493,633.164673 1095.726196,633.088928   C1093.088745,633.032349 1090.449097,633.077820 1087.466553,633.077820   C1087.466553,624.915283 1087.466553,617.047607 1087.466553,608.607544   C1090.811890,608.607544 1094.243042,608.607544 1098.073242,608.669250  M1091.609619,621.675049   C1090.914307,624.505188 1090.218872,627.335266 1089.456299,630.439026   C1092.784424,630.439026 1095.139160,631.016541 1096.953979,630.274231   C1098.715576,629.553711 1100.834839,627.659485 1101.172729,625.958252   C1101.766602,622.966858 1099.386353,621.703125 1096.496948,621.694946   C1095.178467,621.691223 1093.860107,621.662170 1091.609619,621.675049  M1090.026733,613.648743   C1090.026733,615.390747 1090.026733,617.132812 1090.026733,620.765930   C1094.256714,618.852844 1097.275635,617.567871 1100.116943,615.967407   C1100.260498,615.886597 1099.169556,612.048767 1098.134521,611.748474   C1095.515991,610.988892 1092.267456,608.976990 1090.026733,613.648743  z"/>
<path fill="#DDDDDD" opacity="1.000000" stroke="none" d="M775.178711,632.678894   C774.870239,624.626343 774.870239,616.852173 774.870239,608.520508   C779.958435,609.474060 785.717590,606.205444 789.315369,611.535400   C790.621338,613.469971 789.865540,616.796265 790.050476,619.487610   C789.585083,619.521545 789.119629,619.555542 788.654236,619.589539   C789.657227,621.249146 791.014832,622.794922 791.591614,624.591370   C792.908630,628.693298 790.090820,632.551270 785.465027,632.938904   C782.161743,633.215759 778.814636,632.969849 775.178711,632.678894  M782.347290,621.592834   C780.736816,621.675232 779.126343,621.757690 777.557129,621.838013   C777.557129,624.959595 777.557129,627.669739 777.557129,630.337158   C786.038208,631.026428 788.928101,629.978455 789.009521,626.182068   C789.093201,622.281006 786.329895,621.681702 782.347290,621.592834  M777.803650,618.910583   C779.944519,618.934692 782.243408,619.448669 784.175415,618.825439   C785.676514,618.341248 787.918091,616.160400 787.701538,615.228027   C787.324768,613.605469 785.541260,611.749084 783.912964,611.125916   C782.068665,610.420044 779.746399,610.963013 777.259521,610.963013   C777.259521,613.634277 777.259521,615.908630 777.803650,618.910583  z"/>
<path fill="#DDDDDD" opacity="1.000000" stroke="none" d="M420.481628,629.690796   C417.082794,624.592346 413.914734,619.786621 410.746704,614.980896   C410.295624,615.029602 409.844513,615.078308 409.393433,615.127014   C409.393433,621.120728 409.393433,627.114502 409.393433,633.108276   C408.812836,633.083618 408.232208,633.059021 407.651611,633.034424   C407.651611,625.122681 407.651611,617.210876 407.651611,609.257446   C410.117584,609.106018 410.118713,609.105286 414.915527,616.390625   C417.089508,619.692444 419.257874,622.997925 422.710876,626.225403   C422.710876,620.401428 422.710876,614.577454 422.710876,608.753479   C423.358765,608.745300 424.006653,608.737122 424.654541,608.729004   C424.654541,616.665039 424.654541,624.601135 424.654541,633.795288   C423.096710,632.288940 421.904572,631.136230 420.481628,629.690796  z"/>
<path fill="#D3D3D4" opacity="1.000000" stroke="none" d="M916.169312,626.723572   C916.173035,620.625061 916.173035,614.987061 916.173035,608.740173   C921.552124,609.112061 922.246765,613.856201 924.475159,616.781189   C926.865479,619.918701 928.893372,623.332336 932.099426,626.513367   C932.099426,620.603699 932.099426,614.693970 932.099426,608.153931   C934.996277,610.652161 935.764099,624.717224 934.104614,633.239258   C929.377502,632.337036 928.945129,627.667664 926.695435,624.824463   C924.233765,621.713318 922.245361,618.227661 919.134094,614.994812   C919.134094,620.946289 919.134094,626.897705 919.134094,632.849182   C918.416870,632.939880 917.699585,633.030640 916.982361,633.121338   C916.710144,631.142273 916.437866,629.163147 916.169312,626.723572  z"/>
<path fill="#D8D8D8" opacity="1.000000" stroke="none" d="M510.099640,615.902283   C510.076080,621.851135 510.076080,627.378906 510.076080,632.906677   C509.509796,633.002075 508.943512,633.097473 508.377228,633.192810   C508.009949,632.207153 507.342316,631.226868 507.324402,630.234863   C507.213409,624.092407 507.198364,617.946594 507.285614,611.803833   C507.299713,610.809143 507.983063,609.823975 508.357056,608.834473   C509.418640,609.375183 510.887482,609.638611 511.475220,610.501892   C515.098694,615.824158 518.523560,621.281738 523.093079,626.606812   C523.093079,623.430115 522.848999,620.228760 523.166016,617.083984   C523.447876,614.287903 521.582703,610.807678 525.670227,607.795166   C525.670227,616.734436 525.670227,624.600769 525.670227,633.872253   C523.901672,632.525208 522.434143,631.856934 521.636414,630.719055   C518.782593,626.648499 516.230530,622.367004 513.395447,618.282471   C512.603394,617.141418 511.229950,616.403870 510.099640,615.902283  z"/>
<path fill="#DDDDDD" opacity="1.000000" stroke="none" d="M892.126526,632.274109   C883.531555,634.685425 877.942200,632.250183 875.607422,625.394104   C873.216248,618.372314 876.006104,611.758362 882.402405,609.285461   C888.212341,607.039062 894.257690,609.087646 897.092773,614.263550   C900.646667,620.751709 898.943420,627.307251 892.126526,632.274109  M877.738831,620.578796   C878.253296,627.338196 881.391541,630.929626 886.755432,630.897400   C892.082764,630.865479 895.786255,626.910278 895.915588,621.114563   C896.040771,615.507935 892.803894,611.469971 887.756042,610.935547   C882.494080,610.378418 879.205200,613.279968 877.738831,620.578796  z"/>
<path fill="#D8D8D8" opacity="1.000000" stroke="none" d="M1295.105957,630.091797   C1289.080078,634.382568 1283.278809,634.439941 1278.886963,630.509644   C1274.877930,626.921997 1273.678101,619.924683 1276.205811,614.873108   C1278.722290,609.844177 1284.399170,607.370483 1290.148804,608.797546   C1298.770264,610.937500 1301.365723,621.399658 1295.105957,630.091797  M1277.958740,623.058044   C1278.514038,624.426819 1278.842651,625.953369 1279.665405,627.136169   C1282.675415,631.463684 1288.922363,632.150757 1292.813721,628.721558   C1296.841309,625.172302 1296.993896,617.309204 1293.111206,613.400574   C1289.400757,609.665405 1283.027710,609.856323 1280.062744,614.331116   C1278.628418,616.496033 1278.561768,619.567200 1277.958740,623.058044  z"/>
<path fill="#DDDDDD" opacity="1.000000" stroke="none" d="M626.231506,630.952820   C623.209839,627.979492 623.293701,621.697632 616.633484,623.511230   C616.298462,626.631592 615.952087,629.857483 615.605713,633.083374   C615.120361,633.049377 614.634949,633.015381 614.149536,632.981445   C614.149536,625.073975 614.149536,617.166565 614.149536,608.658691   C616.014954,608.658691 618.132751,608.795898 620.226562,608.630310   C624.657593,608.279907 628.381714,609.377197 629.682068,614.023621   C630.899536,618.373718 628.656860,621.366089 624.422546,623.262207   C626.487976,626.440552 628.427551,629.425171 630.367126,632.409790   C630.138245,632.691956 629.909363,632.974182 629.680481,633.256409   C628.607178,632.589233 627.533875,631.922058 626.231506,630.952820  M626.889038,613.916199   C624.308899,609.195312 620.157959,611.263123 616.392700,611.104614   C616.392700,614.388306 616.392700,617.271301 616.392700,620.101257   C624.839050,621.244080 626.554077,620.350647 626.889038,613.916199  z"/>
<path fill="#DDDDDD" opacity="1.000000" stroke="none" d="M970.029480,630.128296   C964.659180,631.609680 959.556763,632.826721 953.922119,634.170715   C953.922119,624.848877 953.922119,617.115173 953.922119,609.414062   C961.988770,607.263855 968.588318,608.686279 971.655090,613.176392   C974.698486,617.632202 974.134705,624.561707 970.029480,630.128296  M967.283691,628.933105   C971.295776,624.589661 972.160645,619.789551 969.733643,615.334900   C967.463501,611.168030 963.889832,610.094727 956.485352,611.419800   C956.485352,617.207214 956.475159,623.019653 956.504822,628.831848   C956.507141,629.294617 956.785278,629.755920 957.213013,631.073608   C960.323608,630.507629 963.476196,629.934021 967.283691,628.933105  z"/>
<path fill="#D8D8D8" opacity="1.000000" stroke="none" d="M1185.281250,628.100037   C1186.246582,627.890198 1187.368774,627.816528 1188.349609,628.154114   C1190.559814,628.914734 1192.732300,630.612854 1194.857910,630.519226   C1196.450684,630.449036 1198.904053,628.356323 1199.186401,626.832764   C1199.417603,625.585876 1197.277588,623.418396 1195.703247,622.441284   C1193.795654,621.257385 1191.015747,621.367798 1189.286133,620.041077   C1187.686890,618.814453 1186.152344,616.442993 1186.121704,614.550842   C1186.094849,612.885071 1187.818604,610.583191 1189.410034,609.609802   C1194.782837,606.323792 1200.926636,609.137207 1200.835327,615.374084   C1199.454102,614.061890 1198.628662,612.663879 1197.491333,612.330627   C1195.399048,611.717651 1193.070557,611.361023 1190.949097,611.662231   C1190.079346,611.785645 1188.615234,614.567749 1188.930908,614.977600   C1190.120728,616.522095 1191.928589,617.592102 1193.515137,618.826660   C1193.634277,618.919373 1193.832520,618.912781 1193.995239,618.946838   C1198.247192,619.836487 1202.738037,621.107727 1202.146729,626.449768   C1201.887329,628.793335 1199.410767,631.759888 1197.170044,632.832214   C1192.710083,634.966187 1188.382812,632.915283 1185.281250,628.100037  z"/>
<path fill="#D8D8D8" opacity="1.000000" stroke="none" d="M814.386353,608.604248   C818.394348,608.598511 821.956604,608.598511 825.518921,608.598511   C825.548828,609.201294 825.578735,609.804077 825.608643,610.406860   C821.305481,610.406860 817.002319,610.406860 812.665894,610.406860   C812.665894,613.819275 812.665894,616.237549 812.665894,618.917480   C816.494202,619.148438 820.076416,619.364563 823.658691,619.580627   C823.653870,620.176392 823.649048,620.772095 823.644226,621.367859   C820.020447,621.629089 816.396667,621.890320 812.611084,622.163269   C812.611084,624.861084 812.611084,627.315735 812.611084,630.305908   C816.988342,630.535400 821.401794,630.766724 825.815247,630.998047   C825.805969,631.476013 825.796753,631.954041 825.787476,632.432007   C820.686768,632.432007 815.586060,632.432007 810.085693,632.432007   C810.085693,624.946716 810.085693,617.066406 810.085693,608.813293   C811.376526,608.745178 812.658569,608.677551 814.386353,608.604248  z"/>
<path fill="#D3D3D4" opacity="1.000000" stroke="none" d="M1220.845703,631.367859   C1219.865112,629.910767 1219.131958,628.696838 1218.398926,627.482849   C1218.695923,627.153809 1218.993042,626.824707 1219.290039,626.495605   C1220.166870,627.046875 1220.986572,627.739685 1221.931885,628.121338   C1224.245483,629.055542 1226.613403,630.445496 1228.966553,630.459473   C1230.284302,630.467407 1232.315796,628.275452 1232.702148,626.741455   C1232.971802,625.670593 1231.292358,623.503662 1229.962158,622.764404   C1227.395020,621.337708 1223.937134,621.169495 1221.849609,619.338318   C1220.325684,618.001404 1219.495605,614.628601 1219.975586,612.534546   C1220.759033,609.116272 1226.096436,607.484680 1230.194458,608.835876   C1232.868652,609.717590 1235.062988,611.139771 1234.467529,614.492188   C1231.765381,613.210999 1229.444458,611.456848 1226.958740,611.179565   C1225.490479,611.015808 1223.761230,613.189270 1222.149292,614.311646   C1223.284546,615.718262 1224.210571,617.411987 1225.621582,618.440430   C1226.741333,619.256592 1228.450317,619.277466 1229.905640,619.617737   C1233.553345,620.470276 1235.974121,622.553589 1235.857056,626.475769   C1235.733521,630.622375 1233.034424,632.978943 1229.167969,633.158875   C1226.506226,633.282837 1223.786987,632.170654 1220.845703,631.367859  z"/>
<path fill="#DDDDDD" opacity="1.000000" stroke="none" d="M579.559204,626.745178   C579.559509,620.623047 579.559509,614.966797 579.559509,609.129517   C584.762695,609.129517 589.823792,609.129517 594.884949,609.129517   C594.902100,609.640686 594.919189,610.151855 594.936340,610.663025   C590.819214,610.845947 586.702087,611.028870 582.488770,611.216064   C582.488770,613.832397 582.488770,616.259644 582.488770,618.871582   C586.171204,619.143921 589.646484,619.400940 593.121765,619.657959   C593.109558,620.193298 593.097351,620.728577 593.085144,621.263855   C589.599487,621.528564 586.113831,621.793274 582.445740,622.071838   C582.445740,624.835999 582.445740,627.416931 582.445740,630.801147   C586.902405,630.801147 591.207397,630.801147 595.512390,630.801147   C595.524719,631.309143 595.537109,631.817078 595.549438,632.325073   C590.352905,632.325073 585.156372,632.325073 579.558960,632.325073   C579.558960,630.796021 579.558960,629.003540 579.559204,626.745178  z"/>
<path fill="#D3D3D4" opacity="1.000000" stroke="none" d="M556.459534,630.611328   C558.366577,630.723022 559.835022,630.838440 561.303528,630.953796   C561.283508,631.451416 561.263550,631.949036 561.243591,632.446655   C556.021667,632.446655 550.799744,632.446655 545.115967,632.446655   C545.115967,628.718018 545.115967,624.776978 545.115967,620.835876   C545.115967,617.024780 545.115967,613.213684 545.115967,609.025330   C550.536194,609.025330 555.768250,609.025330 561.000366,609.025330   C561.039368,609.492249 561.078430,609.959106 561.117432,610.426025   C556.934448,610.426025 552.751526,610.426025 548.335144,610.426025   C548.335144,613.752808 548.335144,616.176270 548.335144,618.805725   C551.974060,619.075317 555.570251,619.341797 559.166443,619.608276   C559.166443,620.178040 559.166504,620.747803 559.166504,621.317566   C555.555969,621.608521 551.945435,621.899414 548.232910,622.198608   C548.232910,624.844727 548.232910,627.325623 548.232910,630.614990   C550.857666,630.614990 553.439331,630.614990 556.459534,630.611328  z"/>
<path fill="#D8D8D8" opacity="1.000000" stroke="none" d="M1031.597656,612.342041   C1031.100098,613.077576 1030.143433,614.035156 1029.783325,613.847595   C1028.375244,613.114075 1027.017090,611.085938 1025.894775,611.252563   C1023.589844,611.594543 1021.448547,613.039795 1019.239929,614.030945   C1020.710815,615.651917 1022.149841,617.304199 1023.680542,618.866577   C1023.971802,619.163879 1024.623047,619.121765 1025.112915,619.209351   C1029.158936,619.932068 1033.051636,621.557312 1032.626831,626.191833   C1032.411011,628.545959 1029.967651,631.683655 1027.742798,632.648071   C1023.828735,634.344727 1019.546448,633.772644 1016.720642,629.689941   C1016.288513,629.065552 1016.061096,628.299561 1016.443420,626.708130   C1017.308594,627.224854 1018.128296,627.849731 1019.048096,628.236694   C1021.213196,629.147522 1023.465881,630.665283 1025.606323,630.547058   C1027.158569,630.461304 1029.285522,628.372009 1029.808960,626.743103   C1030.120117,625.774841 1028.009399,623.734619 1026.629761,622.618713   C1025.692261,621.860413 1024.115112,621.929260 1022.857300,621.524536   C1017.452637,619.785278 1015.141663,616.329834 1016.790527,612.522888   C1018.383057,608.846008 1024.460571,607.154541 1028.537109,609.398438   C1029.644287,610.007935 1030.462036,611.143738 1031.597656,612.342041  z"/>
<path fill="#DDDDDD" opacity="1.000000" stroke="none" d="M373.519348,627.727966   C373.521484,621.283569 373.521484,615.308350 373.521484,609.141113   C378.866913,609.141113 383.921173,609.141113 388.975433,609.141113   C388.990234,609.587158 389.005035,610.033203 389.019806,610.479248   C384.914490,610.479248 380.809143,610.479248 376.446960,610.479248   C376.446960,613.660095 376.446960,616.072815 376.446960,618.755920   C379.992706,619.041504 383.566956,619.329407 387.141205,619.617371   C387.138580,620.195374 387.135986,620.773438 387.133392,621.351440   C383.686523,621.602844 380.239655,621.854248 376.478699,622.128601   C376.478699,624.728455 376.478699,627.286011 376.478699,630.810913   C380.656525,630.810913 384.895813,630.810913 389.135071,630.810913   C389.135895,631.344360 389.136719,631.877747 389.137543,632.411194   C384.077972,632.411194 379.018433,632.411194 373.517242,632.411194   C373.517242,631.135925 373.517242,629.666504 373.519348,627.727966  z"/>
<path fill="#DDDDDD" opacity="1.000000" stroke="none" d="M1056.452271,630.348389   C1063.691406,631.149048 1065.684204,629.400818 1065.713257,622.720093   C1065.733643,618.046936 1065.717163,613.373657 1065.717163,608.700439   C1066.225220,608.647949 1066.733154,608.595520 1067.241211,608.543091   C1067.615479,609.262817 1068.297241,609.975464 1068.313843,610.703369   C1068.419922,615.347351 1068.545166,620.001709 1068.346069,624.639099   C1068.089478,630.610291 1064.598389,633.636169 1058.631226,633.436340   C1053.238647,633.255737 1050.223022,630.210876 1050.100586,624.550659   C1049.987427,619.314575 1050.076416,614.074036 1050.076416,608.835449   C1050.562500,608.702332 1051.048584,608.569275 1051.534546,608.436218   C1052.013184,609.425964 1052.866211,610.401428 1052.904907,611.408081   C1053.063599,615.550659 1052.637329,619.742004 1053.113770,623.835388   C1053.369019,626.028198 1055.021484,628.058289 1056.452271,630.348389  z"/>
<path fill="#D3D3D4" opacity="1.000000" stroke="none" d="M849.729919,627.709351   C847.444214,621.211243 845.164978,615.136597 842.744995,608.686829   C847.895264,610.126831 847.516113,616.456116 851.262329,619.375732   C853.779175,615.573486 856.260681,611.824585 858.742188,608.075745   C859.281921,608.447571 859.821594,608.819397 860.361328,609.191223   C858.234680,612.956360 855.565796,616.528198 854.134705,620.541382   C852.719299,624.510559 852.553711,628.925354 851.839905,633.144714   C851.385742,633.176819 850.931580,633.208923 850.477417,633.241028   C850.230408,631.538330 849.983398,629.835571 849.729919,627.709351  z"/>
<path fill="#D3D3D4" opacity="1.000000" stroke="none" d="M651.637085,616.169617   C651.696899,631.666931 651.696899,631.666931 649.191162,633.187561   C649.191162,624.953918 649.191162,616.957825 649.191162,608.944641   C651.678406,609.722107 651.678406,609.722107 651.637085,616.169617  z"/>
<path fill="#DDDDDD" opacity="1.000000" stroke="none" d="M485.395508,632.863159   C485.083282,624.786987 485.083282,616.890808 485.083282,607.583923   C486.456818,609.114868 487.523834,609.749451 487.535004,610.402161   C487.651764,617.207642 487.657532,624.017273 487.510437,630.821777   C487.494141,631.574890 486.336212,632.303345 485.395508,632.863159  z"/>
<path fill="#D3D3D4" opacity="1.000000" stroke="none" d="M1253.984863,623.868774   C1253.987915,618.502441 1253.987915,613.612976 1253.987915,608.723450   C1254.707642,608.753418 1255.427490,608.783386 1256.147217,608.813354   C1256.147217,616.824890 1256.147217,624.836487 1256.147217,632.848022   C1255.637573,632.927795 1255.127930,633.007629 1254.618408,633.087402   C1254.406250,630.173462 1254.194092,627.259521 1253.984863,623.868774  z"/>
<path fill="#DDDDDD" opacity="1.000000" stroke="none" d="M1164.357056,624.872070   C1164.521606,619.282471 1164.667847,614.171936 1164.864014,609.063232   C1164.869629,608.917908 1165.407959,608.793030 1166.422607,608.322754   C1166.422607,616.706726 1166.422607,624.768127 1166.422607,632.829529   C1165.927490,632.910095 1165.432251,632.990723 1164.937134,633.071289   C1164.739990,630.497986 1164.542847,627.924622 1164.357056,624.872070  z"/>
<path fill="#F1F1F1" opacity="1.000000" stroke="none" d="M831.146484,492.363708   C833.984192,492.417023 836.637939,492.663361 839.717651,492.959869   C839.993835,493.576172 839.843933,494.142303 839.449219,494.883881   C836.397827,495.157623 833.591125,495.255920 830.449768,495.201050   C830.397522,494.217499 830.679993,493.387115 831.146484,492.363708  z"/>
<path fill="#F1F1F1" opacity="1.000000" stroke="none" d="M837.740723,478.217773   C840.130432,478.235962 842.265564,478.473389 844.400696,478.710815   C844.469116,478.973541 844.537598,479.236267 844.606018,479.498962   C842.230408,479.990692 839.854797,480.482391 837.048462,480.961365   C836.907288,480.111420 837.196777,479.274200 837.740723,478.217773  z"/>
<path fill="#F1F1F1" opacity="1.000000" stroke="none" d="M844.749207,463.209839   C846.167786,463.521606 847.336914,464.043640 849.858032,465.169403   C847.104309,466.010315 845.461304,466.512054 843.436401,467.016083   C843.536194,465.818970 844.017944,464.619537 844.749207,463.209839  z"/>
<path fill="#F1F1F1" opacity="1.000000" stroke="none" d="M842.695923,487.971893   C841.421143,487.548492 840.390198,486.914032 838.309753,485.633789   C840.789429,484.911377 842.208069,484.498047 844.013184,484.118835   C843.913025,485.355560 843.426331,486.558197 842.695923,487.971893  z"/>
<path fill="#F1F1F1" opacity="1.000000" stroke="none" d="M835.707886,502.951477   C834.076538,502.738708 832.680298,502.341675 831.284058,501.944641   C831.317993,501.446930 831.351929,500.949219 831.385864,500.451508   C832.965332,500.299011 834.544739,500.146545 836.529541,499.995483   C836.604248,500.920349 836.273621,501.843811 835.707886,502.951477  z"/>
<path fill="#F1F1F1" opacity="1.000000" stroke="none" d="M848.563477,454.759979   C849.342773,455.669189 849.850159,456.806824 850.546875,458.368805   C849.525146,458.574219 848.552307,458.769836 847.205505,458.950073   C847.318298,457.619293 847.804993,456.303864 848.563477,454.759979  z"/>
<path fill="#F1F1F1" opacity="1.000000" stroke="none" d="M851.476257,448.537354   C852.345398,449.254089 852.970398,450.154053 854.102234,451.783875   C852.583801,451.429840 851.829346,451.253906 850.908203,450.764038   C850.905090,449.873566 851.068604,449.297058 851.476257,448.537354  z"/>
<path fill="#F1F1F1" opacity="1.000000" stroke="none" d="M848.544434,475.497406   C848.603027,474.540131 848.932678,473.354004 849.655212,472.085022   C849.637207,473.090912 849.226379,474.179749 848.544434,475.497406  z"/>
<path fill="#020202" opacity="1.000000" stroke="none" d="M318.076233,502.950989   C296.379181,476.686707 289.325378,446.402100 291.582062,413.479706   C292.778290,396.028839 297.195465,379.325317 305.217072,363.725403   C319.698059,335.563599 342.948700,319.843597 374.462799,318.674255   C405.036591,317.539795 429.633759,330.915771 445.091644,357.107147   C471.401184,401.685181 470.693237,447.431610 445.974152,492.631653   C441.668396,500.504974 434.972595,507.071167 429.688538,513.846313   C417.387878,507.941925 406.540497,501.957092 395.099060,497.495728   C386.355286,494.086243 376.978516,491.523834 367.672729,490.501862   C350.971100,488.667725 339.763580,494.080566 323.840149,509.538757   C322.004425,507.443573 320.156921,505.334961 318.076233,502.950989  z"/>
<path fill="#070707" opacity="1.000000" stroke="none" d="M394.374268,519.637634   C397.879944,521.791748 401.076355,523.752930 404.553162,525.886169   C383.603821,536.889954 345.962677,530.434570 329.116089,513.372131   C334.563629,504.282562 344.404785,499.019501 354.902466,501.565033   C363.496948,503.649048 371.707092,507.554077 379.846344,511.191711   C384.821594,513.415283 389.340912,516.659058 394.374268,519.637634  z"/>
<path fill="#060606" opacity="1.000000" stroke="none" d="M612.999878,442.648163   C604.024048,442.646698 595.548218,442.646698 587.116333,442.646698   C585.377258,424.580994 598.712524,401.522400 614.739014,394.404114   C632.500000,386.515442 650.362122,393.206696 658.942505,411.343628   C663.511780,421.002014 664.622803,431.363922 663.539246,442.649628   C646.738647,442.649628 630.119263,442.649628 612.999878,442.648163  z"/>
<path fill="#141313" opacity="1.000000" stroke="none" d="M1092.075684,621.659790   C1093.860107,621.662170 1095.178467,621.691223 1096.496948,621.694946   C1099.386353,621.703125 1101.766602,622.966858 1101.172729,625.958252   C1100.834839,627.659485 1098.715576,629.553711 1096.953979,630.274231   C1095.139160,631.016541 1092.784424,630.439026 1089.456299,630.439026   C1090.218872,627.335266 1090.914307,624.505188 1092.075684,621.659790  z"/>
<path fill="#141313" opacity="1.000000" stroke="none" d="M1090.036987,613.196228   C1092.267456,608.976990 1095.515991,610.988892 1098.134521,611.748474   C1099.169556,612.048767 1100.260498,615.886597 1100.116943,615.967407   C1097.275635,617.567871 1094.256714,618.852844 1090.026733,620.765930   C1090.026733,617.132812 1090.026733,615.390747 1090.036987,613.196228  z"/>
<path fill="#141313" opacity="1.000000" stroke="none" d="M782.798462,621.607056   C786.329895,621.681702 789.093201,622.281006 789.009521,626.182068   C788.928101,629.978455 786.038208,631.026428 777.557129,630.337158   C777.557129,627.669739 777.557129,624.959595 777.557129,621.838013   C779.126343,621.757690 780.736816,621.675232 782.798462,621.607056  z"/>
<path fill="#141313" opacity="1.000000" stroke="none" d="M777.531616,618.546753   C777.259521,615.908630 777.259521,613.634277 777.259521,610.963013   C779.746399,610.963013 782.068665,610.420044 783.912964,611.125916   C785.541260,611.749084 787.324768,613.605469 787.701538,615.228027   C787.918091,616.160400 785.676514,618.341248 784.175415,618.825439   C782.243408,619.448669 779.944519,618.934692 777.531616,618.546753  z"/>
<path fill="#070707" opacity="1.000000" stroke="none" d="M877.757446,620.159424   C879.205200,613.279968 882.494080,610.378418 887.756042,610.935547   C892.803894,611.469971 896.040771,615.507935 895.915588,621.114563   C895.786255,626.910278 892.082764,630.865479 886.755432,630.897400   C881.391541,630.929626 878.253296,627.338196 877.757446,620.159424  z"/>
<path fill="#070707" opacity="1.000000" stroke="none" d="M1277.917358,622.643066   C1278.561768,619.567200 1278.628418,616.496033 1280.062744,614.331116   C1283.027710,609.856323 1289.400757,609.665405 1293.111206,613.400574   C1296.993896,617.309204 1296.841309,625.172302 1292.813721,628.721558   C1288.922363,632.150757 1282.675415,631.463684 1279.665405,627.136169   C1278.842651,625.953369 1278.514038,624.426819 1277.917358,622.643066  z"/>
<path fill="#141313" opacity="1.000000" stroke="none" d="M626.989319,614.323730   C626.554077,620.350647 624.839050,621.244080 616.392700,620.101257   C616.392700,617.271301 616.392700,614.388306 616.392700,611.104614   C620.157959,611.263123 624.308899,609.195312 626.989319,614.323730  z"/>
<path fill="#141313" opacity="1.000000" stroke="none" d="M966.956299,629.146729   C963.476196,629.934021 960.323608,630.507629 957.213013,631.073608   C956.785278,629.755920 956.507141,629.294617 956.504822,628.831848   C956.475159,623.019653 956.485352,617.207214 956.485352,611.419800   C963.889832,610.094727 967.463501,611.168030 969.733643,615.334900   C972.160645,619.789551 971.295776,624.589661 966.956299,629.146729  z"/>
</svg>